<?xml version="1.0" encoding="UTF-8"?>
<svg id="Camada_1" xmlns="http://www.w3.org/2000/svg" version="1.1" viewBox="0 0 2999.59 737">
  <!-- Generator: Adobe Illustrator 29.7.1, SVG Export Plug-In . SVG Version: 2.1.1 Build 8)  -->
  <defs>
    <style>
      .st0 {
        fill: #0069d6;
      }

      .st1 {
        fill: #fff;
      }

      .st2 {
        fill: none;
        stroke: #8098af;
        stroke-width: 2px;
      }

      .st3 {
        fill: #0364ce;
      }

      .st4 {
        fill: #00315e;
      }
    </style>
  </defs>
  <path class="st2" d="M1399.46,94.21l-24.23,24.23c-.24.24-.63.28-.92.08-2.45-1.72-4.11-3.05-4.98-3.98-5.15-5.51-9.23-9.63-12.22-12.36-5.44-4.97-11.74-6.33-18.9-4.09-.38.12-.74.28-1.09.49-4.51,2.66-8.75,6.11-12.7,10.35-4.83,5.17-9.69,10.43-14.56,15.76-3.99,4.35-9.85,6.92-7.98,13.64,1.73,6.21,9.35,8.35,13.92,3.94,5.35-5.15,14.86-14.37,28.53-27.66.22-.22.56-.25.82-.09.89.55,1.88,1.38,2.96,2.48,6.68,6.78,10.16,10.3,10.44,10.56,3.37,3.24,6.16,5.34,8.37,6.3,7.09,3.09,13.58,2.32,19.45-2.31,3.75-2.95,7.63-6.64,11.62-11.06,4.59-5.08,9.29-9.82,14.1-14.23.17-.15.43-.14.58.03.07.08.11.17.11.28v13.09c0,.29.07.58.2.84,1.62,3.27,5.42,5.58,9.07,5,4.51-.72,7.01-3.66,7.5-8.83.5-5.28.61-14.18.34-26.7-.13-6.11-1.09-12.62-8.69-13.12-11.49-.74-22.46-.7-32.93.12-4.81.37-8.61,4.72-7.76,9.77.67,4,2.94,4.96,6.46,6.78.25.13.53.2.82.2h11.47c.16,0,.29.14.28.3,0,.07-.03.14-.08.19" vector-effect="non-scaling-stroke"/>
  <path class="st4" d="M1371.99,0c6.73.71,11.31,1.31,13.73,1.81,24.43,5.06,44.75,16.17,60.98,33.32,53.27,56.31,32.93,149.24-38.99,178.26-34.17,13.79-74.1,9.97-104.74-10.47-59.53-39.69-64.96-124.86-13.44-173.64,18.45-17.48,40.9-27.24,67.36-29.28h15.1ZM1399.46,94.21l-24.23,24.23c-.24.24-.63.28-.92.08-2.45-1.72-4.11-3.05-4.98-3.98-5.15-5.51-9.23-9.63-12.22-12.36-5.44-4.97-11.74-6.33-18.9-4.09-.38.12-.74.28-1.09.49-4.51,2.66-8.75,6.11-12.7,10.35-4.83,5.17-9.69,10.43-14.56,15.76-3.99,4.35-9.85,6.92-7.98,13.64,1.73,6.21,9.35,8.35,13.92,3.94,5.35-5.15,14.86-14.37,28.53-27.66.22-.22.56-.25.82-.09.89.55,1.88,1.38,2.96,2.48,6.68,6.78,10.16,10.3,10.44,10.56,3.37,3.24,6.16,5.34,8.37,6.3,7.09,3.09,13.58,2.32,19.45-2.31,3.75-2.95,7.63-6.64,11.62-11.06,4.59-5.08,9.29-9.82,14.1-14.23.17-.15.43-.14.58.03.07.08.11.17.11.28v13.09c0,.29.07.58.2.84,1.62,3.27,5.42,5.58,9.07,5,4.51-.72,7.01-3.66,7.5-8.83.5-5.28.61-14.18.34-26.7-.13-6.11-1.09-12.62-8.69-13.12-11.49-.74-22.46-.7-32.93.12-4.81.37-8.61,4.72-7.76,9.77.67,4,2.94,4.96,6.46,6.78.25.13.53.2.82.2h11.47c.16,0,.29.14.28.3,0,.07-.03.14-.08.19h0Z"/>
  <path class="st1" d="M1399.46,94.21c.11-.12.11-.3,0-.41-.05-.05-.12-.08-.19-.08h-11.47c-.29,0-.57-.07-.82-.2-3.52-1.82-5.79-2.78-6.46-6.78-.85-5.05,2.95-9.4,7.76-9.77,10.47-.82,21.44-.86,32.93-.12,7.6.5,8.56,7.01,8.69,13.12.27,12.52.16,21.42-.34,26.7-.49,5.17-2.99,8.11-7.5,8.83-3.65.58-7.45-1.73-9.07-5-.13-.26-.2-.55-.2-.84v-13.09c0-.23-.19-.42-.42-.42-.1,0-.2.04-.27.11-4.81,4.41-9.51,9.15-14.1,14.23-3.99,4.42-7.87,8.11-11.62,11.06-5.87,4.63-12.36,5.4-19.45,2.31-2.21-.96-5-3.06-8.37-6.3-.28-.26-3.76-3.78-10.44-10.56-1.08-1.1-2.07-1.93-2.96-2.48-.26-.16-.6-.13-.82.09-13.67,13.29-23.18,22.51-28.53,27.66-4.57,4.41-12.19,2.27-13.92-3.94-1.87-6.72,3.99-9.29,7.98-13.64,4.87-5.33,9.73-10.59,14.56-15.76,3.95-4.24,8.19-7.69,12.7-10.35.35-.21.71-.37,1.09-.49,7.16-2.24,13.46-.88,18.9,4.09,2.99,2.73,7.07,6.85,12.22,12.36.87.93,2.53,2.26,4.98,3.98.29.2.68.16.92-.08l24.23-24.23h0Z"/>
  <path class="st3" d="M0,164.71v-47.53c1.13-9.98,6.54-15.58,16.23-16.8,1.09-.13,3.1-.21,6.02-.23,30.49-.2,49.56-.43,57.22-.7,7.99-.28,14.09-.09,18.28.57,13.78,2.17,16.77,12.52,16.74,24.64-.11,37.65-.47,93.3-1.1,166.95-.1,12.29-.13,20.05-.09,23.26,0,.31.1.62.27.89.99,1.53,2.22,1.9,3.69,1.11,12.22-6.5,21.94-12.63,31.93-17.34,17.37-8.19,35.9-13.51,55.57-15.94,58.78-7.27,120.64,9.21,166.49,46.27,45.89,37.09,73.21,85.01,81.97,143.75,1.36,9.11,2.27,18.48,2.73,28.13,2.91,60.85-17.56,117.67-58.16,162.16-23.8,26.08-55.27,46.87-89.04,59.1-35.1,12.7-71.28,16.76-108.55,12.18-47.75-5.87-89.23-24.69-124.44-56.46-28.99-26.15-50.4-58.9-63.23-95.88-4.05-11.65-6.81-23.15-8.28-34.48-2.25-17.28-3.42-36.61-3.49-58,0-2.59-.09-5.92-.24-9.99-.17-4.47.23-9.14.23-13.35.02-84.69.01-137.66-.02-158.91l-.03-2.75c-.24-19.13-.31-43.8-.21-74,0-1.36-.26-2.75-.25-4.01.1-20.88.02-41.76-.24-62.64ZM197.63,394.29c-62.03,16.74-98.52,81.41-81.51,144.46,17.01,63.05,81.09,100.59,143.11,83.85,62.03-16.74,98.52-81.41,81.51-144.46-17.01-63.05-81.09-100.59-143.12-83.85h0ZM1825.22,333.53c.19-.02.45-.16.77-.43,29.75-24.57,63.5-37.78,101.26-39.64,65.97-3.25,128.39,24.03,164.47,80.37,17.16,26.78,26.9,57.19,30.7,88.99.88,7.31,1.44,18.52,1.67,33.64.57,36.23.82,64.21.75,83.94,0,1.24,0,2.49.01,3.75.17,19.3.12,50.37-.16,93.21,0,1.23-.01,2.06-.02,2.51-.11,14.33-.22,24.98-.34,31.94-.12,7.31-.69,12.1-1.71,14.39-2.77,6.2-8.3,9.69-16.59,10.48-7.63.73-17.7-.17-25.39-.08-8.67.1-15.18.06-19.53-.13-3.67-.16-15.13-.14-34.37.05-7.3.07-11.41-5.43-14.67-11.51-1.18-2.2-1.77-4.25-1.78-6.15-.07-16.65-.08-83.9-.03-201.75.01-17.29-.59-34.11-3.62-49.29-4.55-22.84-20.85-42.89-40.4-54.2-24.99-14.46-55.3-16.24-82.45-6.21-41.91,15.48-58.03,55.23-59.17,97.31-.31,11.36.08,24.46.1,33.59.05,30.66.08,49.76.07,57.3,0,.92.01,2.5.04,4.75.17,12.66.23,48.98.18,108.95,0,7.49-.5,12.45-1.49,14.9-2.16,5.36-8.61,12.65-15.27,12.65-39.41.01-66.9.01-82.47,0-.71,0-1.41-.16-2.06-.46-5.08-2.39-10.36-6.72-12.29-12.32-.83-2.41-.32-6.14-.47-8.83-.13-2.11-.19-3.55-.19-4.32-.03-59.09-.04-91.37-.04-96.82,0-1.24,0-2.49-.01-3.75-.31-38.91-.4-69.91-.27-93,0-.58,0-1.33-.02-2.25-.15-9.08-.24-36.91-.25-83.5,0-.44,0-1.44-.01-3-.23-42.89-.28-69.05-.17-78.5,0-.49,0-1.33-.02-2.5-.24-11.96-.31-36.04-.22-72.25,0-.52,0-1.52-.02-3-.21-18.77-.31-41.1-.3-67,0-.66-.01-1.66-.04-3-.17-8.14-.22-27.39-.15-57.74.01-6.17-.83-13.65.05-19.03,2.09-12.86,13.79-16.55,25.23-15.96,3.89.2,6.71.28,8.46.25,9.22-.2,28.62-.31,58.21-.33,5.89,0,9.84.52,11.87,1.56,3.83,1.97,6.45,5.26,7.88,9.85,3.09,9.96,2.62,19.04,2.35,31.96-1.04,49.09-1.34,95.87-.91,140.34.15,16.04.39,28.83.71,38.37.04,1.09.93,1.94,1.99,1.91.04,0,.08,0,.13,0h0Z"/>
  <rect class="st3" x="1513.99" y="110.49" width="114" height="626.28" rx="19.53" ry="19.53"/>
  <path class="st3" d="M1170.85,737h-7.72c-12.54-.15-22.58-.57-30.13-1.27-8.87-.82-18.36-2.69-28.45-5.61-30.67-8.86-55.64-26.92-71.51-54.9-10.72-18.89-17.24-40.54-18.51-62.73-.55-9.66-.86-16.78-.93-21.36-.13-8.39-.16-20.01-.07-34.88.01-2.99-.29-5.64-.29-8.01,0-41.51,0-62.59,0-63.24,0-.43-.01-1.01-.03-1.75-.21-8.03-.28-32.2-.2-72.5,0-2.19-1.14-3.51-3.42-3.94-.21-.04-.42-.05-.63-.04-14.55.96-31.18,1.68-45.47.06-10.1-1.15-13.29-9.25-13.43-18.66-.21-14.43-.32-27.8-.31-40.12.01-10.07-.7-21.66-.05-31.15.73-10.72,8.83-15.91,18.81-16.31,11.42-.47,25.15-.77,41.19-.9,2.86-.02,3.54-2.74,3.54-5.25.01-74.19,0-113.14-.04-116.85-.05-4.32.22-7.35.83-9.08,2.06-5.84,10.73-13.51,17.49-13.51,30.21,0,57.56,0,82.05,0,.16,0,.31.03.46.09,4.48,1.94,9.11,5.7,11.27,10.28.57,1.21.86,3.37.88,6.48.22,43.07.13,78.55-.26,106.45-.09,6.18.27,12.42,1.08,18.72.48,3.69,2.01,3.79,5.43,3.78,30.15-.13,56.31-.37,78.47-.73,7.68-.13,12.71.25,15.08,1.13,6.39,2.36,10.88,7.31,13.45,14.85.21.62.31,1.26.32,1.9.02,3.62.01,27.29-.03,71.02,0,2.25-1.2,5.3-3.61,9.15-3.66,5.84-9.05,8.85-16.18,9.04-9.81.25-19.47.37-28.97.34-.82-.01-1.77.25-2.71.25-8.8,0-28.5,0-59.1,0-.99,0-1.79.79-1.81,1.78-.28,17.88-.41,36.42-.47,55.49-.19,56.32-.12,99.07.21,128.24.03,2.94.55,6.32,1.56,10.15,6.26,23.75,32.87,26.76,53.63,26.05,8.58-.29,17.73-.88,27.45-1.75,6.1-.55,10.43-.44,12.99.35,6.65,2.04,12.8,8.69,14.21,15.86.05.21.07.43.08.66v73.41c0,3.45-2.49,6.76-5.09,9.64-5.62,6.21-13.36,8.26-21.59,8.49-12.75.34-25.91.63-39.47.87h0ZM611.66,556.45c11.1,28.38,30.54,50.69,58.46,63.46,25.79,11.79,52.77,15,80.93,9.61,24.99-4.78,49.22-16.09,69.41-31.28,5.47-4.12,8.98-6.39,10.51-6.8,8.76-2.37,14.86,1.25,21.93,7.47,16.93,14.91,31.99,29.99,45.2,45.24,3.37,3.88,4.55,7.95,3.55,12.22-.61,2.58-2.98,6.24-7.13,10.98-7.45,8.51-14.66,15.44-21.64,20.81-27.97,21.48-58.96,35.8-92.95,42.96-20.04,4.22-41.01,6.09-62.91,5.6-42.67-.94-81.43-12.5-116.28-34.68-35.66-22.7-65.42-56.18-83.37-94.58-16.47-35.22-23.2-73.14-20.21-113.76,2.51-33.97,13.07-70.6,30.18-100.46,24.63-42.97,59.9-74.17,105.81-93.58,42.2-17.84,90.64-21.96,135.77-11.39,37.3,8.74,70.33,26.46,99.1,53.17,40.96,38.01,61.93,89.38,63.61,145.16.44,14.6-.26,28.66-2.11,42.19-1.39,10.21-6.65,17.77-15.77,22.7-.32.18-.68.27-1.04.27h-296.96c-2.25,0-3.64,1.24-4.17,3.72-.07.33-.04.66.08.97h0ZM716.41,469.76c33.5.06,66.83-.06,99.83.07,2.22.01,4.36-.66,3.67-3.26-12.65-47.32-55.06-76.98-103.35-77.07s-90.81,29.42-103.63,76.7c-.7,2.59,1.44,3.27,3.66,3.27,32.99-.02,66.32.23,99.82.29ZM2527.75,692.27c-.52,0-1.03.19-1.42.53-40.44,34.23-95.31,47.68-147.85,43.21-88.67-7.55-161.82-66.41-189.1-150.83-22.39-69.28-13.33-146.97,29.67-206.63,40.67-56.42,103.99-90.5,173.46-93.91,52-2.56,103.78,10.27,146.43,41.19,20.6,14.93,38.47,32.71,53.62,53.33,28.03,38.17,41.75,83.16,42.34,130.16.11,8.98.14,25.63.08,49.94,0,1.58.27,3.52.27,5.32,0,70.23,0,113.98.01,131.25,0,6.94-.29,12.09-.33,19.62,0,1.58-.73,3.52-2.16,5.82-2.23,3.59-5.5,6.43-9.83,8.54-.59.29-1.24.44-1.89.44h-76.5c-.33,0-.65-.03-.97-.1-4.97-1.09-8.58-3.82-10.83-8.18-1.07-2.07-1.6-5.66-1.57-10.75.06-9.58.1-14.53.11-14.86.12-2.62-1.04-4.11-3.54-4.09ZM2402.01,628.98c10.22.28,20.2-.76,29.93-3.11,69.25-16.73,107.7-90.14,83.08-156.84-16.44-44.52-58.38-75.47-106.42-76.8-48.04-1.34-91.64,27.23-110.52,70.77-28.3,65.22,6.01,140.66,74.22,161.21,9.59,2.89,19.5,4.48,29.71,4.77Z"/>
  <rect class="st3" x="1315.5" y="303.03" width="113.5" height="433.76" rx="18.82" ry="18.82"/>
  <path class="st0" d="M2709.91,608.5c6.37-9.41,13.22-17.95,25.13-10.64,38.56,23.66,95.82,48.48,140.13,28.33,10.2-4.64,16.48-11.95,18.79-21.9,5.33-23.09-9.53-34.73-28.51-41.29-4.87-1.69-20.34-6.18-46.42-13.43-74.07-20.65-142.02-53.37-136.63-148.85,4.11-73.45,58.23-118.82,125.69-127.83,48.85-6.56,94.78,3.17,138.67,25.51,13.37,6.81,21.41,10.32,29.94,18.17,9.38,8.63,4.45,19.77-2.31,29.56-10.87,15.75-21.05,29.93-30.52,42.58-8.62,11.45-18.46,7.22-30,.53-27.29-15.78-60.55-26.14-91.46-19.3-16.69,3.67-31.55,14.28-32.68,33.29-1.28,22.09,15.68,33.1,33.17,40.29,72.24,29.74,175.18,34.7,176.68,143.55,1.1,83.59-61.77,142.07-140.04,148.91-53.39,4.64-103.64-6.53-150.79-33.48-11.91-6.81-21.35-13.52-28.35-20.21-7.64-7.28-8.41-15.78-2.28-25.51,7.98-12.71,18.58-28.8,31.8-48.29h0Z"/>
</svg>