<?xml version="1.0" encoding="UTF-8" standalone="no"?><!DOCTYPE svg PUBLIC "-//W3C//DTD SVG 1.1//EN" "http://www.w3.org/Graphics/SVG/1.1/DTD/svg11.dtd"><svg xmlns="http://www.w3.org/2000/svg" viewBox="0 0 2636 737"><path fill="none" stroke="#8098af" stroke-width="2" d="m1399.46 94.21-24.23 24.23a.73.72 39.5 0 1-.92.08q-3.67-2.58-4.98-3.98-7.73-8.26-12.22-12.36-8.16-7.45-18.9-4.09a5.3 5.02-67.6 0 0-1.09.49q-6.77 3.99-12.7 10.35-7.25 7.76-14.56 15.76c-3.99 4.35-9.85 6.92-7.98 13.64 1.73 6.21 9.35 8.35 13.92 3.94q8.03-7.73 28.53-27.66a.67.66 38.4 0 1 .82-.09q1.34.83 2.96 2.48 10.02 10.17 10.44 10.56 5.05 4.86 8.37 6.3 10.64 4.64 19.45-2.31 5.63-4.43 11.62-11.06 6.89-7.62 14.1-14.23a.42.41 68.8 0 1 .69.31v13.09a1.91 1.84 32.6 0 0 .2.84c1.62 3.27 5.42 5.58 9.07 5q6.77-1.08 7.5-8.83.75-7.92.34-26.7c-.13-6.11-1.09-12.62-8.69-13.12q-17.23-1.11-32.93.12c-4.81.37-8.61 4.72-7.76 9.77.67 4 2.94 4.96 6.46 6.78a1.8 1.71-29.8 0 0 .82.2h11.47a.29.29 0 0 1 .2.49" vector-effect="non-scaling-stroke"/><path fill="#00315e" d="M1371.99 0q10.1 1.06 13.73 1.81 36.64 7.59 60.98 33.32c53.27 56.31 32.93 149.24-38.99 178.26-34.17 13.79-74.1 9.97-104.74-10.47-59.53-39.69-64.96-124.86-13.44-173.64Q1317.2 3.06 1356.89 0h15.1Zm27.47 94.21-24.23 24.23a.73.72 39.5 0 1-.92.08q-3.67-2.58-4.98-3.98-7.73-8.26-12.22-12.36-8.16-7.45-18.9-4.09a5.3 5.02-67.6 0 0-1.09.49q-6.77 3.99-12.7 10.35-7.25 7.76-14.56 15.76c-3.99 4.35-9.85 6.92-7.98 13.64 1.73 6.21 9.35 8.35 13.92 3.94q8.03-7.73 28.53-27.66a.67.66 38.4 0 1 .82-.09q1.34.83 2.96 2.48 10.02 10.17 10.44 10.56 5.05 4.86 8.37 6.3 10.64 4.64 19.45-2.31 5.63-4.43 11.62-11.06 6.89-7.62 14.1-14.23a.42.41 68.8 0 1 .69.31v13.09a1.91 1.84 32.6 0 0 .2.84c1.62 3.27 5.42 5.58 9.07 5q6.77-1.08 7.5-8.83.75-7.92.34-26.7c-.13-6.11-1.09-12.62-8.69-13.12q-17.23-1.11-32.93.12c-4.81.37-8.61 4.72-7.76 9.77.67 4 2.94 4.96 6.46 6.78a1.8 1.71-29.8 0 0 .82.2h11.47a.29.29 0 0 1 .2.49Z"/><path fill="#fff" d="M1399.46 94.21a.29.29 0 0 0-.2-.49h-11.47a1.8 1.71-29.8 0 1-.82-.2c-3.52-1.82-5.79-2.78-6.46-6.78-.85-5.05 2.95-9.4 7.76-9.77q15.7-1.23 32.93-.12c7.6.5 8.56 7.01 8.69 13.12q.41 18.78-.34 26.7-.73 7.75-7.5 8.83c-3.65.58-7.45-1.73-9.07-5a1.91 1.84 32.6 0 1-.2-.84v-13.09a.42.41 68.8 0 0-.69-.31q-7.21 6.61-14.1 14.23-5.99 6.63-11.62 11.06-8.81 6.95-19.45 2.31-3.32-1.44-8.37-6.3-.42-.39-10.44-10.56-1.62-1.65-2.96-2.48a.67.66 38.4 0 0-.82.09q-20.5 19.93-28.53 27.66c-4.57 4.41-12.19 2.27-13.92-3.94-1.87-6.72 3.99-9.29 7.98-13.64q7.31-8 14.56-15.76 5.93-6.36 12.7-10.35a5.3 5.02-67.6 0 1 1.09-.49q10.74-3.36 18.9 4.09 4.49 4.1 12.22 12.36 1.31 1.4 4.98 3.98a.73.72 39.5 0 0 .92-.08l24.23-24.23Z"/><path fill="#0364ce" d="M0 164.6v-47.53q1.7-14.97 16.23-16.8 1.64-.2 6.02-.23 45.73-.3 57.22-.7 11.99-.42 18.28.57c13.78 2.17 16.77 12.52 16.74 24.64q-.16 56.47-1.1 166.95-.15 18.44-.09 23.26a1.75 1.71 28.7 0 0 .27.89q1.48 2.29 3.69 1.11c12.22-6.5 21.94-12.63 31.93-17.34q26.06-12.29 55.57-15.94c58.78-7.27 120.64 9.21 166.49 46.27q68.83 55.64 81.97 143.75 2.04 13.66 2.73 28.13c2.91 60.85-17.56 117.67-58.16 162.16-23.8 26.08-55.27 46.87-89.04 59.1q-52.65 19.05-108.55 12.18-71.62-8.81-124.44-56.46c-28.99-26.15-50.4-58.9-63.23-95.88q-6.07-17.48-8.28-34.48-3.38-25.92-3.49-58-.01-3.89-.24-9.99c-.17-4.47.23-9.14.23-13.35Q.78 339.88.73 308l-.03-2.75q-.36-28.7-.21-74c.01-1.36-.26-2.75-.25-4.01Q.39 195.92 0 164.6Zm197.628 229.583a118.24 116.33-105.1 0 0-81.511 144.462 118.24 116.33-105.1 0 0 143.115 83.852 118.24 116.33-105.1 0 0 81.511-144.461 118.24 116.33-105.1 0 0-143.115-83.853ZM1825.22 333.42q.29-.03.77-.43 44.62-36.85 101.26-39.64c65.97-3.25 128.39 24.03 164.47 80.37 17.16 26.78 26.9 57.19 30.7 88.99q1.32 10.96 1.67 33.64.86 54.34.75 83.94-.01 1.86.01 3.75.26 28.95-.16 93.21-.01 1.84-.02 2.51-.16 21.5-.34 31.94-.18 10.96-1.71 14.39-4.15 9.3-16.59 10.48c-7.63.73-17.7-.17-25.39-.08q-13.01.15-19.53-.13-5.51-.24-34.37.05c-7.3.07-11.41-5.43-14.67-11.51q-1.77-3.3-1.78-6.15-.11-24.98-.03-201.75c.01-17.29-.59-34.11-3.62-49.29-4.55-22.84-20.85-42.89-40.4-54.2-24.99-14.46-55.3-16.24-82.45-6.21-41.91 15.48-58.03 55.23-59.17 97.31-.31 11.36.08 24.46.1 33.59q.08 45.99.07 57.3 0 1.38.04 4.75.26 18.99.18 108.95-.01 11.23-1.49 14.9c-2.16 5.36-8.61 12.65-15.27 12.65q-59.12.02-82.47 0a4.86 4.83 57.4 0 1-2.06-.46c-5.08-2.39-10.36-6.72-12.29-12.32-.83-2.41-.32-6.14-.47-8.83q-.19-3.17-.19-4.32-.04-88.64-.04-96.82 0-1.86-.01-3.75-.47-58.36-.27-93 .01-.87-.02-2.25-.23-13.62-.25-83.5 0-.66-.01-3-.34-64.33-.17-78.5.01-.74-.02-2.5-.36-17.94-.22-72.25 0-.78-.02-3-.31-28.15-.3-67 0-.99-.04-3-.26-12.21-.15-57.74c.01-6.17-.83-13.65.05-19.03 2.09-12.86 13.79-16.55 25.23-15.96q5.83.3 8.46.25 13.83-.3 58.21-.33 8.83 0 11.87 1.56 5.74 2.96 7.88 9.85c3.09 9.96 2.62 19.04 2.35 31.96q-1.56 73.64-.91 140.34.23 24.06.71 38.37a1.97 1.93 86.3 0 0 2.12 1.9Z"/><rect width="114" height="626.28" x="1513.99" y="110.49" fill="#0364ce" rx="19.53"/><path fill="#0364ce" d="M1170.85 737h-7.72q-18.81-.22-30.13-1.27-13.31-1.23-28.45-5.61c-30.67-8.86-55.64-26.92-71.51-54.9-10.72-18.89-17.24-40.54-18.51-62.73q-.82-14.49-.93-21.36-.2-12.58-.07-34.88c.01-2.99-.29-5.64-.29-8.01q-.01-62.27 0-63.24 0-.64-.03-1.75-.32-12.05-.2-72.5 0-3.29-3.42-3.94a2.57 2.41-39.6 0 0-.63-.04c-14.55.96-31.18 1.68-45.47.06-10.1-1.15-13.29-9.25-13.43-18.66q-.32-21.64-.31-40.12c.01-10.07-.7-21.66-.05-31.15.73-10.72 8.83-15.91 18.81-16.31q17.13-.7 41.19-.9c2.86-.02 3.54-2.74 3.54-5.25q.02-111.29-.04-116.85-.08-6.48.83-9.08c2.06-5.84 10.73-13.51 17.49-13.51q45.32-.01 82.05.01a1.23 1.2-33.2 0 1 .46.09c4.48 1.94 9.11 5.7 11.27 10.28q.85 1.82.88 6.48.33 64.6-.26 106.45-.13 9.27 1.08 18.72c.48 3.69 2.01 3.79 5.43 3.78q45.23-.19 78.47-.73 11.52-.19 15.08 1.13 9.59 3.54 13.45 14.85a6.31 6.1 36.4 0 1 .32 1.9q.03 5.43-.03 71.02 0 3.38-3.61 9.15-5.49 8.76-16.18 9.04-14.72.38-28.97.34c-.82-.01-1.77.25-2.71.25q-13.2-.01-59.1 0a1.81 1.81 0 0 0-1.81 1.78c-.28 17.88-.41 36.42-.47 55.49q-.29 84.48.21 128.24.04 4.41 1.56 10.15c6.26 23.75 32.87 26.76 53.63 26.05q12.87-.44 27.45-1.75 9.15-.83 12.99.35c6.65 2.04 12.8 8.69 14.21 15.86a3.84 3.14-57.7 0 1 .08.66V718c0 3.45-2.49 6.76-5.09 9.64-5.62 6.21-13.36 8.26-21.59 8.49q-19.13.51-39.47.87ZM611.66 556.45c11.1 28.38 30.54 50.69 58.46 63.46q38.69 17.69 80.93 9.61c24.99-4.78 49.22-16.09 69.41-31.28q8.21-6.18 10.51-6.8c8.76-2.37 14.86 1.25 21.93 7.47q25.39 22.37 45.2 45.24 5.05 5.82 3.55 12.22-.91 3.87-7.13 10.98-11.17 12.76-21.64 20.81-41.96 32.22-92.95 42.96-30.06 6.33-62.91 5.6-64-1.41-116.28-34.68c-35.66-22.7-65.42-56.18-83.37-94.58q-24.7-52.83-20.21-113.76c2.51-33.97 13.07-70.6 30.18-100.46q36.95-64.46 105.81-93.58c42.2-17.84 90.64-21.96 135.77-11.39q55.95 13.11 99.1 53.17c40.96 38.01 61.93 89.38 63.61 145.16q.66 21.9-2.11 42.19-2.09 15.31-15.77 22.7a2.19 2.12-58.5 0 1-1.04.27H615.75q-3.37 0-4.17 3.72a1.66 1.63-50.2 0 0 .08.97Zm104.75-86.69c33.5.06 66.83-.06 99.83.07 2.22.01 4.36-.66 3.67-3.26-12.65-47.32-55.06-76.98-103.35-77.07-48.29-.09-90.81 29.42-103.63 76.7-.7 2.59 1.44 3.27 3.66 3.27 32.99-.02 66.32.23 99.82.29ZM2527.75 692.27a2.25 2.21 24.1 0 0-1.42.53c-40.44 34.23-95.31 47.68-147.85 43.21-88.67-7.55-161.82-66.41-189.1-150.83-22.39-69.28-13.33-146.97 29.67-206.63 40.67-56.42 103.99-90.5 173.46-93.91 52-2.56 103.78 10.27 146.43 41.19q30.9 22.4 53.62 53.33c28.03 38.17 41.75 83.16 42.34 130.16q.17 13.47.08 49.94c0 1.58.27 3.52.27 5.32q-.01 105.35.01 131.25c0 6.94-.29 12.09-.33 19.62q-.01 2.37-2.16 5.82-3.34 5.38-9.83 8.54a4.36 4.24-57.3 0 1-1.89.44h-76.5a4.76 4.75 50.8 0 1-.97-.1q-7.46-1.64-10.83-8.18-1.61-3.11-1.57-10.75.09-14.37.11-14.86c.12-2.62-1.04-4.11-3.54-4.09Zm-125.74-63.29q15.33.42 29.93-3.11c69.25-16.73 107.7-90.14 83.08-156.84-16.44-44.52-58.38-75.47-106.42-76.8-48.04-1.34-91.64 27.23-110.52 70.77-28.3 65.22 6.01 140.66 74.22 161.21q14.39 4.34 29.71 4.77Z"/><rect width="113.5" height="433.76" x="1315.5" y="303.03" fill="#0364ce" rx="18.82"/></svg>