<?xml version="1.0" encoding="UTF-8"?>
<svg id="Camada_1" xmlns="http://www.w3.org/2000/svg" version="1.1" viewBox="0 0 113.39 113.39">
  <!-- Generator: Adobe Illustrator 29.5.1, SVG Export Plug-In . SVG Version: 2.1.0 Build 141)  -->
  <defs>
    <style>
      .st0 {
        fill: #fff;
      }

      .st1 {
        fill: #0364ce;
      }
    </style>
  </defs>
  <path class="st1" d="M51.79.16c43.24-3.1,74.39,40.26,56.4,80.18-19.12,42.41-79.19,44.44-101.36,3.55C-12.52,48.22,11.37,3.06,51.79.16ZM80.79,54.09v7.05c0,.9,1.63,2.51,2.51,2.81,3.48,1.17,5.71-1.01,6-4.39.34-3.98.34-11.47,0-15.45-.21-2.39-1.3-4.35-3.86-4.65-3.92-.45-13-.37-17.01,0-3.65.32-5.45,4.48-2.88,7.17.34.35,1.99,1.36,2.36,1.36h6.51l-12.92,13c-6.17-3.73-9.67-13.56-18.41-10.73-5.23,1.7-13.17,13.05-17.91,16.64-3.15,4.28,1.82,9.29,6.04,6.05l14.92-14.6c5.53,4.02,9.7,13.06,17.88,10.74,1.35-.38,2.96-1.45,4.03-2.34,4.41-3.66,8.25-8.96,12.74-12.64h0Z"/>
  <path class="st0" d="M80.79,54.09c-4.5,3.69-8.33,8.98-12.74,12.64-1.08.89-2.69,1.96-4.03,2.34-8.18,2.32-12.35-6.72-17.88-10.74l-14.92,14.6c-4.21,3.24-9.19-1.77-6.04-6.05,4.74-3.59,12.67-14.95,17.91-16.64,8.74-2.83,12.25,6.99,18.41,10.73l12.92-13h-6.51c-.37,0-2.03-1-2.36-1.36-2.56-2.69-.77-6.84,2.88-7.17,4.01-.36,13.09-.44,17.01,0,2.56.29,3.65,2.25,3.86,4.65.34,3.98.34,11.47,0,15.45-.29,3.39-2.52,5.56-6,4.39-.88-.3-2.51-1.91-2.51-2.81v-7.05h0Z"/>
</svg>